<svg xmlns="http://www.w3.org/2000/svg" xmlns:xlink="http://www.w3.org/1999/xlink" width="200" zoomAndPan="magnify" viewBox="0 0 150 149.999998" height="200" preserveAspectRatio="xMidYMid meet" version="1.0"><rect x="-15" width="180" fill="#ffffff" y="-15" height="179.999997" fill-opacity="1"/><rect x="-15" width="180" fill="#ffffff" y="-15" height="179.999997" fill-opacity="1"/><rect x="-15" width="180" fill="#ffffff" y="-15" height="179.999997" fill-opacity="1"/><path stroke-linecap="butt" transform="matrix(4.054054, 0, 0, 4.054054, 0.00000125, 0.000002)" fill-opacity="1" fill="#ffffff" fill-rule="nonzero" stroke-linejoin="miter" d="M 2.000312 2.50039 L 9.000443 2.50039 M 9.999636 2.50039 L 13.000105 2.50039 M 14.000262 2.50039 L 15.000418 2.50039 M 17.999924 2.50039 L 22.999742 2.50039 M 23.999898 2.50039 L 26.000211 2.50039 M 27.99956 2.50039 L 34.999691 2.50039 M 2.000312 3.499583 L 3.000469 3.499583 M 8.000287 3.499583 L 9.000443 3.499583 M 9.999636 3.499583 L 13.000105 3.499583 M 15.999611 3.499583 L 16.999767 3.499583 M 20.000236 3.499583 L 21.000393 3.499583 M 21.999585 3.499583 L 22.999742 3.499583 M 23.999898 3.499583 L 26.000211 3.499583 M 27.99956 3.499583 L 28.999716 3.499583 M 33.999535 3.499583 L 34.999691 3.499583 M 2.000312 4.49974 L 3.000469 4.49974 M 3.999662 4.49974 L 7.000131 4.49974 M 8.000287 4.49974 L 9.000443 4.49974 M 11.999949 4.49974 L 13.000105 4.49974 M 15.000418 4.49974 L 16.999767 4.49974 M 21.000393 4.49974 L 22.999742 4.49974 M 26.000211 4.49974 L 27.000367 4.49974 M 27.99956 4.49974 L 28.999716 4.49974 M 29.999873 4.49974 L 33.000342 4.49974 M 33.999535 4.49974 L 34.999691 4.49974 M 2.000312 5.499896 L 3.000469 5.499896 M 3.999662 5.499896 L 7.000131 5.499896 M 8.000287 5.499896 L 9.000443 5.499896 M 9.999636 5.499896 L 10.999793 5.499896 M 11.999949 5.499896 L 13.000105 5.499896 M 14.000262 5.499896 L 15.000418 5.499896 M 16.999767 5.499896 L 17.999924 5.499896 M 19.00008 5.499896 L 20.000236 5.499896 M 23.999898 5.499896 L 27.000367 5.499896 M 27.99956 5.499896 L 28.999716 5.499896 M 29.999873 5.499896 L 33.000342 5.499896 M 33.999535 5.499896 L 34.999691 5.499896 M 2.000312 6.500052 L 3.000469 6.500052 M 3.999662 6.500052 L 7.000131 6.500052 M 8.000287 6.500052 L 9.000443 6.500052 M 11.999949 6.500052 L 14.000262 6.500052 M 17.999924 6.500052 L 19.00008 6.500052 M 21.000393 6.500052 L 22.999742 6.500052 M 26.000211 6.500052 L 27.000367 6.500052 M 27.99956 6.500052 L 28.999716 6.500052 M 29.999873 6.500052 L 33.000342 6.500052 M 33.999535 6.500052 L 34.999691 6.500052 M 2.000312 7.500209 L 3.000469 7.500209 M 8.000287 7.500209 L 9.000443 7.500209 M 14.000262 7.500209 L 19.00008 7.500209 M 21.000393 7.500209 L 21.999585 7.500209 M 26.000211 7.500209 L 27.000367 7.500209 M 27.99956 7.500209 L 28.999716 7.500209 M 33.999535 7.500209 L 34.999691 7.500209 M 2.000312 8.500365 L 9.000443 8.500365 M 9.999636 8.500365 L 10.999793 8.500365 M 11.999949 8.500365 L 13.000105 8.500365 M 14.000262 8.500365 L 15.000418 8.500365 M 15.999611 8.500365 L 16.999767 8.500365 M 17.999924 8.500365 L 19.00008 8.500365 M 20.000236 8.500365 L 21.000393 8.500365 M 21.999585 8.500365 L 22.999742 8.500365 M 23.999898 8.500365 L 25.000055 8.500365 M 26.000211 8.500365 L 27.000367 8.500365 M 27.99956 8.500365 L 34.999691 8.500365 M 9.999636 9.499558 L 14.000262 9.499558 M 16.999767 9.499558 L 20.000236 9.499558 M 21.000393 9.499558 L 22.999742 9.499558 M 23.999898 9.499558 L 27.000367 9.499558 M 2.000312 10.499714 L 3.000469 10.499714 M 3.999662 10.499714 L 5.999974 10.499714 M 7.000131 10.499714 L 9.999636 10.499714 M 10.999793 10.499714 L 14.000262 10.499714 M 15.999611 10.499714 L 17.999924 10.499714 M 19.00008 10.499714 L 21.000393 10.499714 M 21.999585 10.499714 L 23.999898 10.499714 M 27.99956 10.499714 L 28.999716 10.499714 M 31.000029 10.499714 L 32.000186 10.499714 M 33.000342 10.499714 L 34.999691 10.499714 M 5.999974 11.499871 L 7.000131 11.499871 M 11.999949 11.499871 L 13.000105 11.499871 M 15.000418 11.499871 L 20.000236 11.499871 M 21.000393 11.499871 L 23.999898 11.499871 M 25.000055 11.499871 L 26.000211 11.499871 M 27.99956 11.499871 L 29.999873 11.499871 M 31.000029 11.499871 L 33.000342 11.499871 M 3.000469 12.500027 L 5.999974 12.500027 M 8.000287 12.500027 L 9.999636 12.500027 M 10.999793 12.500027 L 11.999949 12.500027 M 13.000105 12.500027 L 14.000262 12.500027 M 15.000418 12.500027 L 15.999611 12.500027 M 17.999924 12.500027 L 20.000236 12.500027 M 22.999742 12.500027 L 23.999898 12.500027 M 25.000055 12.500027 L 27.000367 12.500027 M 27.99956 12.500027 L 32.000186 12.500027 M 33.000342 12.500027 L 34.999691 12.500027 M 3.999662 13.500183 L 4.999818 13.500183 M 11.999949 13.500183 L 13.000105 13.500183 M 14.000262 13.500183 L 15.000418 13.500183 M 16.999767 13.500183 L 17.999924 13.500183 M 21.000393 13.500183 L 21.999585 13.500183 M 23.999898 13.500183 L 25.000055 13.500183 M 27.000367 13.500183 L 29.999873 13.500183 M 31.000029 13.500183 L 32.000186 13.500183 M 3.000469 14.50034 L 4.999818 14.50034 M 5.999974 14.50034 L 7.000131 14.50034 M 8.000287 14.50034 L 10.999793 14.50034 M 13.000105 14.50034 L 14.000262 14.50034 M 15.999611 14.50034 L 16.999767 14.50034 M 17.999924 14.50034 L 20.000236 14.50034 M 21.000393 14.50034 L 22.999742 14.50034 M 23.999898 14.50034 L 26.000211 14.50034 M 27.000367 14.50034 L 27.99956 14.50034 M 28.999716 14.50034 L 32.000186 14.50034 M 33.000342 14.50034 L 33.999535 14.50034 M 4.999818 15.499532 L 7.000131 15.499532 M 9.999636 15.499532 L 10.999793 15.499532 M 11.999949 15.499532 L 13.000105 15.499532 M 14.000262 15.499532 L 16.999767 15.499532 M 19.00008 15.499532 L 21.999585 15.499532 M 26.000211 15.499532 L 27.000367 15.499532 M 28.999716 15.499532 L 29.999873 15.499532 M 31.000029 15.499532 L 32.000186 15.499532 M 33.000342 15.499532 L 33.999535 15.499532 M 2.000312 16.499689 L 3.000469 16.499689 M 3.999662 16.499689 L 4.999818 16.499689 M 7.000131 16.499689 L 9.000443 16.499689 M 9.999636 16.499689 L 10.999793 16.499689 M 11.999949 16.499689 L 13.000105 16.499689 M 14.000262 16.499689 L 15.000418 16.499689 M 15.999611 16.499689 L 16.999767 16.499689 M 20.000236 16.499689 L 25.000055 16.499689 M 27.99956 16.499689 L 32.000186 16.499689 M 2.000312 17.499845 L 3.000469 17.499845 M 3.999662 17.499845 L 4.999818 17.499845 M 5.999974 17.499845 L 7.000131 17.499845 M 9.000443 17.499845 L 9.999636 17.499845 M 13.000105 17.499845 L 14.000262 17.499845 M 15.000418 17.499845 L 17.999924 17.499845 M 22.999742 17.499845 L 28.999716 17.499845 M 29.999873 17.499845 L 33.000342 17.499845 M 2.000312 18.500002 L 5.999974 18.500002 M 8.000287 18.500002 L 9.000443 18.500002 M 9.999636 18.500002 L 15.000418 18.500002 M 20.000236 18.500002 L 26.000211 18.500002 M 27.000367 18.500002 L 28.999716 18.500002 M 29.999873 18.500002 L 33.000342 18.500002 M 2.000312 19.500158 L 3.000469 19.500158 M 3.999662 19.500158 L 5.999974 19.500158 M 7.000131 19.500158 L 8.000287 19.500158 M 14.000262 19.500158 L 19.00008 19.500158 M 21.999585 19.500158 L 27.000367 19.500158 M 27.99956 19.500158 L 28.999716 19.500158 M 29.999873 19.500158 L 32.000186 19.500158 M 33.000342 19.500158 L 34.999691 19.500158 M 2.000312 20.500314 L 4.999818 20.500314 M 5.999974 20.500314 L 9.000443 20.500314 M 14.000262 20.500314 L 15.000418 20.500314 M 16.999767 20.500314 L 19.00008 20.500314 M 21.999585 20.500314 L 23.999898 20.500314 M 26.000211 20.500314 L 27.000367 20.500314 M 27.99956 20.500314 L 31.000029 20.500314 M 32.000186 20.500314 L 33.999535 20.500314 M 3.000469 21.500471 L 4.999818 21.500471 M 5.999974 21.500471 L 8.000287 21.500471 M 9.000443 21.500471 L 9.999636 21.500471 M 14.000262 21.500471 L 20.000236 21.500471 M 21.000393 21.500471 L 21.999585 21.500471 M 23.999898 21.500471 L 25.000055 21.500471 M 27.000367 21.500471 L 28.999716 21.500471 M 29.999873 21.500471 L 31.000029 21.500471 M 33.999535 21.500471 L 34.999691 21.500471 M 2.000312 22.499663 L 3.999662 22.499663 M 4.999818 22.499663 L 7.000131 22.499663 M 8.000287 22.499663 L 11.999949 22.499663 M 13.000105 22.499663 L 14.000262 22.499663 M 16.999767 22.499663 L 21.999585 22.499663 M 22.999742 22.499663 L 25.000055 22.499663 M 26.000211 22.499663 L 27.000367 22.499663 M 31.000029 22.499663 L 33.000342 22.499663 M 2.000312 23.49982 L 3.000469 23.49982 M 7.000131 23.49982 L 8.000287 23.49982 M 9.000443 23.49982 L 9.999636 23.49982 M 15.000418 23.49982 L 19.00008 23.49982 M 20.000236 23.49982 L 22.999742 23.49982 M 25.000055 23.49982 L 26.000211 23.49982 M 31.000029 23.49982 L 32.000186 23.49982 M 33.999535 23.49982 L 34.999691 23.49982 M 3.999662 24.499976 L 4.999818 24.499976 M 5.999974 24.499976 L 7.000131 24.499976 M 8.000287 24.499976 L 9.999636 24.499976 M 10.999793 24.499976 L 11.999949 24.499976 M 13.000105 24.499976 L 14.000262 24.499976 M 16.999767 24.499976 L 17.999924 24.499976 M 22.999742 24.499976 L 23.999898 24.499976 M 25.000055 24.499976 L 27.000367 24.499976 M 28.999716 24.499976 L 29.999873 24.499976 M 31.000029 24.499976 L 34.999691 24.499976 M 3.000469 25.500133 L 3.999662 25.500133 M 9.999636 25.500133 L 11.999949 25.500133 M 13.000105 25.500133 L 14.000262 25.500133 M 15.000418 25.500133 L 15.999611 25.500133 M 16.999767 25.500133 L 17.999924 25.500133 M 21.000393 25.500133 L 22.999742 25.500133 M 25.000055 25.500133 L 27.000367 25.500133 M 28.999716 25.500133 L 32.000186 25.500133 M 2.000312 26.500289 L 3.000469 26.500289 M 3.999662 26.500289 L 5.999974 26.500289 M 7.000131 26.500289 L 9.000443 26.500289 M 9.999636 26.500289 L 10.999793 26.500289 M 14.000262 26.500289 L 15.999611 26.500289 M 19.00008 26.500289 L 21.000393 26.500289 M 23.999898 26.500289 L 31.000029 26.500289 M 33.999535 26.500289 L 34.999691 26.500289 M 9.999636 27.500445 L 10.999793 27.500445 M 11.999949 27.500445 L 15.000418 27.500445 M 15.999611 27.500445 L 19.00008 27.500445 M 21.000393 27.500445 L 21.999585 27.500445 M 22.999742 27.500445 L 23.999898 27.500445 M 26.000211 27.500445 L 27.000367 27.500445 M 29.999873 27.500445 L 32.000186 27.500445 M 33.000342 27.500445 L 33.999535 27.500445 M 2.000312 28.499638 L 9.000443 28.499638 M 9.999636 28.499638 L 11.999949 28.499638 M 14.000262 28.499638 L 16.999767 28.499638 M 20.000236 28.499638 L 21.999585 28.499638 M 22.999742 28.499638 L 23.999898 28.499638 M 25.000055 28.499638 L 27.000367 28.499638 M 27.99956 28.499638 L 28.999716 28.499638 M 29.999873 28.499638 L 31.000029 28.499638 M 2.000312 29.499794 L 3.000469 29.499794 M 8.000287 29.499794 L 9.000443 29.499794 M 9.999636 29.499794 L 15.000418 29.499794 M 16.999767 29.499794 L 17.999924 29.499794 M 21.000393 29.499794 L 27.000367 29.499794 M 29.999873 29.499794 L 34.999691 29.499794 M 2.000312 30.499951 L 3.000469 30.499951 M 3.999662 30.499951 L 7.000131 30.499951 M 8.000287 30.499951 L 9.000443 30.499951 M 10.999793 30.499951 L 11.999949 30.499951 M 13.000105 30.499951 L 14.000262 30.499951 M 15.999611 30.499951 L 17.999924 30.499951 M 20.000236 30.499951 L 21.999585 30.499951 M 22.999742 30.499951 L 31.000029 30.499951 M 32.000186 30.499951 L 33.000342 30.499951 M 33.999535 30.499951 L 34.999691 30.499951 M 2.000312 31.500107 L 3.000469 31.500107 M 3.999662 31.500107 L 7.000131 31.500107 M 8.000287 31.500107 L 9.000443 31.500107 M 9.999636 31.500107 L 11.999949 31.500107 M 13.000105 31.500107 L 14.000262 31.500107 M 17.999924 31.500107 L 20.000236 31.500107 M 21.999585 31.500107 L 22.999742 31.500107 M 25.000055 31.500107 L 26.000211 31.500107 M 28.999716 31.500107 L 29.999873 31.500107 M 32.000186 31.500107 L 33.000342 31.500107 M 33.999535 31.500107 L 34.999691 31.500107 M 2.000312 32.500264 L 3.000469 32.500264 M 3.999662 32.500264 L 7.000131 32.500264 M 8.000287 32.500264 L 9.000443 32.500264 M 9.999636 32.500264 L 10.999793 32.500264 M 13.000105 32.500264 L 14.000262 32.500264 M 16.999767 32.500264 L 17.999924 32.500264 M 19.00008 32.500264 L 20.000236 32.500264 M 21.999585 32.500264 L 23.999898 32.500264 M 25.000055 32.500264 L 29.999873 32.500264 M 32.000186 32.500264 L 33.000342 32.500264 M 2.000312 33.50042 L 3.000469 33.50042 M 8.000287 33.50042 L 9.000443 33.50042 M 10.999793 33.50042 L 11.999949 33.50042 M 13.000105 33.50042 L 14.000262 33.50042 M 17.999924 33.50042 L 20.000236 33.50042 M 21.999585 33.50042 L 22.999742 33.50042 M 23.999898 33.50042 L 27.99956 33.50042 M 28.999716 33.50042 L 31.000029 33.50042 M 33.999535 33.50042 L 34.999691 33.50042 M 2.000312 34.499613 L 9.000443 34.499613 M 9.999636 34.499613 L 11.999949 34.499613 M 13.000105 34.499613 L 14.000262 34.499613 M 16.999767 34.499613 L 21.999585 34.499613 M 22.999742 34.499613 L 26.000211 34.499613 M 29.999873 34.499613 L 31.000029 34.499613 M 32.000186 34.499613 L 33.000342 34.499613 " stroke="#0db393" stroke-width="1" stroke-opacity="1" stroke-miterlimit="4"/></svg>